<svg width="43" height="55" viewBox="0 0 43 55" fill="none" xmlns="http://www.w3.org/2000/svg">
<path d="M21.3774 55C20.8399 55 20.3136 54.9141 19.7984 54.7422C19.2833 54.5703 18.8018 54.3125 18.3538 53.9688L2.49669 41.8C1.84718 41.3187 1.34884 40.7172 1.00169 39.9953C0.654534 39.2734 0.480957 38.5 0.480957 37.675V5.15625C0.480957 3.73826 0.974388 2.52439 1.96125 1.51463C2.94811 0.504878 4.13446 0 5.5203 0H37.2346C38.6204 0 39.8068 0.504878 40.7936 1.51463C41.7805 2.52439 42.2739 3.73826 42.2739 5.15625V37.675C42.2739 38.5 42.1003 39.2734 41.7532 39.9953C41.406 40.7172 40.9077 41.3187 40.2582 41.8L24.401 53.9688C23.9531 54.3125 23.4716 54.5703 22.9564 54.7422C22.4413 54.9141 21.915 55 21.3774 55ZM21.3774 49.8438L37.2346 37.675V5.15625H5.5203V37.675L21.3774 49.8438ZM18.6226 27.4313L14.7591 23.4781C14.244 22.951 13.6504 22.6932 12.9785 22.7047C12.3066 22.7161 11.7131 22.9685 11.198 23.4617C10.6828 23.9997 10.4197 24.6182 10.4085 25.3172C10.3973 26.0161 10.6492 26.6292 11.1644 27.1562L16.842 32.9656C17.349 33.4927 17.9405 33.7563 18.6165 33.7563C19.2925 33.7563 19.888 33.4927 20.4032 32.9656L31.6241 21.4844C32.1392 20.9573 32.3912 20.35 32.38 19.6625C32.3688 18.975 32.1222 18.3677 31.6402 17.8406C31.1143 17.3135 30.5098 17.0443 29.8267 17.0328C29.1436 17.0214 28.5445 17.2792 28.0294 17.8062L18.6226 27.4313Z" fill="#B9C3FF"/>
</svg>
