<svg width="70" height="55" viewBox="0 0 70 55" fill="none" xmlns="http://www.w3.org/2000/svg">
<path d="M42.1087 55V53.1273C42.1087 50.5735 43.3688 48.5524 45.8889 47.0639C48.409 45.5754 51.747 44.8312 55.9029 44.8312C60.0589 44.8312 63.3969 45.5754 65.917 47.0639C68.4371 48.5524 69.6971 50.5735 69.6971 53.1273V55H42.1087ZM55.9029 41.0289C54.0305 41.0289 52.4276 40.3623 51.0943 39.0289C49.7609 37.6955 49.0942 36.0927 49.0942 34.2203C49.0942 32.3478 49.7609 30.745 51.0943 29.4116C52.4276 28.0783 54.0305 27.4116 55.9029 27.4116C57.7753 27.4116 59.3782 28.0783 60.7115 29.4116C62.0449 30.745 62.7116 32.3478 62.7116 34.2203C62.7116 36.0927 62.0449 37.6955 60.7115 39.0289C59.3782 40.3623 57.7753 41.0289 55.9029 41.0289ZM7.35791 48.1913V6.63183V21.885V20.7797V48.1913ZM7.35791 54.8232C5.53412 54.8232 3.97287 54.1738 2.67415 52.8751C1.37543 51.5764 0.726074 50.0151 0.726074 48.1913V6.63183C0.726074 4.80805 1.37543 3.2468 2.67415 1.94808C3.97287 0.64936 5.53412 0 7.35791 0H25.8386C26.7313 0 27.5821 0.169157 28.3911 0.507469C29.2 0.845781 29.9114 1.32507 30.5251 1.94534L35.2116 6.63183H63.0653C64.8891 6.63183 66.4503 7.28119 67.7491 8.57991C69.0478 9.87863 69.6971 11.4399 69.6971 13.2637V25.1568C68.695 24.4494 67.6424 23.8264 66.5395 23.2879C65.4366 22.7495 64.2785 22.2818 63.0653 21.885V13.2637H32.4704L25.8386 6.63183H7.35791V48.1913H32.2945C32.4707 49.3703 32.7284 50.5051 33.0673 51.5957C33.4063 52.6862 33.8263 53.7621 34.3274 54.8232H7.35791Z" fill="#B9C3FF"/>
</svg>
