<svg width="56" height="55" viewBox="0 0 56 55" fill="none" xmlns="http://www.w3.org/2000/svg">
<path d="M7.35791 48.9516H17.6151V32.7419C17.6151 31.9086 17.9394 31.1962 18.5878 30.6048C19.2363 30.0134 20.0173 29.7177 20.9311 29.7177H35.5211C36.4348 29.7177 37.2159 30.0134 37.8643 30.6048C38.5128 31.1962 38.837 31.9086 38.837 32.7419V48.9516H49.0942V20.3226L28.2261 6.04839L7.35791 20.3226V48.9516ZM0.726074 48.9516V20.3226C0.726074 19.3548 0.954504 18.4476 1.41136 17.6008C1.86822 16.754 2.52404 16.0484 3.37881 15.4839L24.247 1.20968C25.426 0.403226 26.7523 0 28.2261 0C29.6998 0 31.0262 0.403226 32.2052 1.20968L53.0733 15.4839C53.9281 16.0484 54.5839 16.754 55.0408 17.6008C55.4976 18.4476 55.7261 19.3548 55.7261 20.3226V48.9516C55.7261 50.6149 55.0767 52.0388 53.778 53.2233C52.4793 54.4078 50.918 55 49.0942 55H35.5211C34.6074 55 33.8263 54.7043 33.1778 54.1129C32.5294 53.5215 32.2052 52.8091 32.2052 51.9758V35.7661H24.247V51.9758C24.247 52.8091 23.9228 53.5215 23.2743 54.1129C22.6259 54.7043 21.8448 55 20.9311 55H7.35791C5.53412 55 3.97287 54.4078 2.67415 53.2233C1.37543 52.0388 0.726074 50.6149 0.726074 48.9516Z" fill="#B9C3FF"/>
</svg>
