<svg width="67" height="55" viewBox="0 0 67 55" fill="none" xmlns="http://www.w3.org/2000/svg">
<path d="M13.1048 45.5214C12.0975 44.9626 11.3168 44.2133 10.7628 43.2734C10.2087 42.3336 9.93173 41.2794 9.93173 40.1109V24.9041L2.2838 20.7064C1.7414 20.408 1.34137 20.0216 1.08373 19.547C0.826087 19.0724 0.697266 18.5639 0.697266 18.0214C0.697266 17.479 0.826087 16.9705 1.08373 16.4959C1.34137 16.0213 1.7414 15.6349 2.2838 15.3365L29.1736 0.732249C29.6346 0.461045 30.1093 0.271203 30.5974 0.162722C31.0856 0.0542406 31.5737 0 32.0619 0C32.5501 0 33.0382 0.0542406 33.5264 0.162722C34.0146 0.271203 34.4892 0.461045 34.9502 0.732249L65.1351 17.1672C65.6233 17.4384 66.0098 17.8101 66.2945 18.2825C66.5793 18.7548 66.7217 19.2645 66.7217 19.8114V40.1516C66.7217 40.9924 66.4234 41.711 65.8267 42.3077C65.2301 42.9043 64.5114 43.2027 63.6706 43.2027C62.8299 43.2027 62.1112 42.9043 61.5146 42.3077C60.9179 41.711 60.6196 40.9924 60.6196 40.1516V21.3979L54.1921 24.8868V40.1109C54.1921 41.2794 53.9151 42.3336 53.3611 43.2734C52.807 44.2133 52.0263 44.9626 51.019 45.5214L34.9909 54.2271C34.5299 54.4983 34.0549 54.6949 33.566 54.8169C33.0772 54.939 32.5754 55 32.0609 55C31.5463 55 31.0449 54.939 30.5567 54.8169C30.0686 54.6949 29.594 54.4983 29.1329 54.2271L13.1048 45.5214ZM32.0619 29.9408L54.0294 18.0214L32.0619 6.14275L10.1351 18.0214L32.0619 29.9408ZM32.0619 48.8572L48.09 40.206V28.1102L35.0316 35.3106C34.5705 35.5819 34.0858 35.7785 33.5773 35.9005C33.0688 36.0226 32.5603 36.0836 32.0517 36.0836C31.5432 36.0836 31.0381 36.0226 30.5364 35.9005C30.0347 35.7785 29.5533 35.5819 29.0922 35.3106L16.0338 28.1102V40.206L32.0619 48.8572Z" fill="#B9C3FF"/>
</svg>
