<svg width="65" height="55" viewBox="0 0 65 55" fill="none" xmlns="http://www.w3.org/2000/svg">
<path d="M6.85237 55C5.16641 55 3.72313 54.4542 2.52255 53.3626C1.32197 52.2709 0.72168 50.9586 0.72168 49.4257V16.723C0.72168 15.19 1.32197 13.8777 2.52255 12.7861C3.72313 11.6945 5.16641 11.1486 6.85237 11.1486H20.0129V5.57105C20.0129 4.0372 20.6132 2.72523 21.8138 1.63514C23.0144 0.545045 24.4577 0 26.1436 0H39.059C40.7449 0 42.1882 0.545814 43.3888 1.63744C44.5894 2.72907 45.1897 4.04136 45.1897 5.57432V11.1486H58.3502C60.0362 11.1486 61.4794 11.6945 62.68 12.7861C63.8806 13.8777 64.4809 15.19 64.4809 16.723V49.4257C64.4809 50.9586 63.8806 52.2709 62.68 53.3626C61.4794 54.4542 60.0362 55 58.3502 55H6.85237ZM6.85237 49.4257H58.3502V16.723H6.85237V49.4257ZM26.1436 11.1486H39.059V5.57432H26.1436V11.1486Z" fill="#B9C3FF"/>
</svg>
